<?xml version="1.0" encoding="utf-8"?>
<!-- Generator: Adobe Illustrator 19.0.0, SVG Export Plug-In . SVG Version: 6.00 Build 0)  -->
<svg version="1.1" id="Layer_1" xmlns="http://www.w3.org/2000/svg" xmlns:xlink="http://www.w3.org/1999/xlink" x="0px" y="0px"
	 viewBox="480 187 1740 425" style="enable-background:new 480 187 1740 425;" xml:space="preserve">
<style type="text/css">
	.st0{fill:#F25022;}
	.st1{fill:#FEFEFE;}
	.st2{fill:#80BA01;}
	.st3{fill:#777777;}
	.st4{fill:#02A4EF;}
	.st5{fill:#FFB902;}
</style>
<g>
	<path class="st0" d="M514,222h166.5c0,55.5,0,111,0,166.5c-55.5,0-111,0-166.5,0V222L514,222z"/>
	<path class="st1" d="M680.5,222h17c0,55.5,0,111,0,166.5c55.5,0,111,0,166.5,0c0-55.5,0-111,0-166.5h1289v129.5
		c-11.9,0-23.8-0.1-35.6,0.1c-0.3-15,0-30.1-0.1-45.1c-11.9,3.6-23.7,7.4-35.6,10.8c-0.3,11.4,0,22.8-0.2,34.2
		c-17.6,0-35.1,0-52.7,0c0.2-9-0.6-18,0.7-27c1.1-7,5.2-14.1,12-16.8c8.7-3.5,18.3-1.2,26.5,2.4c-0.1-10.3,0.1-20.6-0.1-30.9
		c-17.3-4.8-37.1-3.8-52.5,6.2c-9.9,6.3-17.1,16.5-20.3,27.7c-3.8,12.4-1.9,25.6-2.5,38.4c-8.3-0.1-16.6-0.1-25,0.1
		c0.1,9.6,0.1,19.2,0,28.9c8.4,0.2,16.7,0,25.1,0.1c-0.1,40.5,0,80.9,0,121.4c12,0,24,0,36,0c0-40.5,0-81,0-121.5
		c17.6,0,35.1,0,52.7,0c0.1,25.8,0,51.6,0,77.4c0.2,12,2.2,24.9,10.2,34.4c6.9,8.4,17.8,12.2,28.4,13c11.1,0.8,22.6-0.6,32.9-5V572
		H864c0-55.5,0-111,0-166.5c-55.5,0-111,0-166.5,0c0,55.5,0,111,0,166.5h-17c0-55.5,0-111,0-166.5c-55.5,0-111,0-166.5,0v-17
		c55.5,0,111,0,166.5,0C680.5,333,680.5,277.5,680.5,222L680.5,222z"/>
	<path class="st2" d="M697.5,222H864c0,55.5,0,111,0,166.5c-55.5,0-111,0-166.5,0C697.5,333,697.5,277.5,697.5,222L697.5,222z"/>
	<path class="st3" d="M2015.4,285.4c15.4-10,35.2-10.9,52.5-6.2c0.1,10.3,0,20.6,0.1,30.9c-8.2-3.6-17.9-6-26.5-2.4
		c-6.9,2.7-10.9,9.8-12,16.8c-1.3,8.9-0.4,18-0.7,27c17.6,0,35.1,0,52.7,0c0.1-11.4-0.1-22.8,0.2-34.2c11.9-3.4,23.8-7.2,35.6-10.8
		c0.1,15-0.1,30,0.1,45.1c11.9-0.2,23.8,0,35.6-0.1v29.2c-11.9-0.5-23.8-0.1-35.8-0.2c0.1,16.8,0,33.6,0,50.4
		c0.2,9.3-0.5,18.7,0.6,27.9c0.7,5.5,2.6,11.5,7.8,14.4c8.6,4.8,19.5,2.7,27.4-2.6v29.5c-10.3,4.5-21.8,5.8-32.9,5
		c-10.6-0.8-21.5-4.6-28.4-13c-8-9.5-10-22.3-10.2-34.4c-0.1-25.8,0-51.6,0-77.4c-17.6,0-35.1,0-52.7,0c0,40.5,0,81,0,121.5
		c-12,0-24,0-36,0c0-40.5-0.1-81,0-121.4c-8.3-0.2-16.7,0-25.1-0.1c0-9.6,0.1-19.2,0-28.9c8.3-0.2,16.6-0.1,25-0.1
		c0.6-12.8-1.3-25.9,2.5-38.4C1998.4,301.9,2005.6,291.8,2015.4,285.4L2015.4,285.4z"/>
	<path class="st3" d="M1244.5,287.5c7.3-1.1,15.1,1.4,19.9,7.1c5.6,6.2,6.7,16.1,2.5,23.4c-4.6,8.2-15,12-24,10
		c-9.3-1.7-17.1-10.4-16.7-20.1C1225.9,297.8,1234.5,288.7,1244.5,287.5L1244.5,287.5z"/>
	<path class="st3" d="M968.5,292c17.5,0,34.9,0,52.4,0c16.3,41.4,32.7,82.7,49,124.1c4.2,10.4,8.1,20.8,12.4,31.1
		c21-51.7,42.2-103.3,63.1-155.1c16.8-0.3,33.6-0.1,50.4-0.1c0,70,0,140,0,210c-12.1,0-24.2,0.1-36.3-0.1c0.1-51.6,0-103.3,0.1-155
		c0-2.3-0.1-4.6-0.2-7c-0.7,1.1-1.3,2.2-1.9,3.4c-20.8,52.9-42,105.6-62.7,158.5c-8.6,0.3-17.2,0-25.9,0.2
		c-21.5-52.9-42.7-105.9-64-158.8c-0.6-1.1-1.2-2.2-1.8-3.2c-0.4,22.6-0.1,45.3-0.2,67.9c0,31.3,0,62.7,0,94c-11.4,0-22.9,0-34.3,0
		C968.5,432,968.5,362,968.5,292L968.5,292z"/>
	<path class="st3" d="M1343.6,351.3c17.4-5,36.1-4.8,53.5,0.2c3.6,1,7,2.4,10.3,4.3c-0.2,11.5,0,23-0.1,34.4
		c-11.6-8.9-26.3-14.5-41.1-12.6c-11.7,1.1-22.9,7.1-29.9,16.6c-9,11.7-11.1,27.3-9.5,41.7c1.2,11.2,5.8,22.5,14.5,29.9
		c9.1,8.1,21.8,10.9,33.7,10c11.7-1.4,22.8-6.3,32.3-13.3c0.1,10.9,0,21.7,0.1,32.6c-14.7,8.8-32.4,11-49.2,10.2
		c-17.2-0.9-34.4-7.4-46.9-19.6c-13.6-13.1-20.9-31.7-21.8-50.4c-0.9-19.4,3.1-39.7,14.2-55.9C1313,365.7,1327.6,355.9,1343.6,351.3
		L1343.6,351.3z"/>
	<path class="st3" d="M1587.5,348.8c17.3-2.2,35.5-1.2,51.5,6.1c13.9,6.3,25.2,17.9,31.5,31.8c6.7,14.8,8.3,31.4,7.2,47.5
		c-1.1,15.7-6,31.4-15.8,43.8c-10,13.2-25.2,22.2-41.3,25.5c-13.8,2.9-28.3,2.9-42.2,0c-16.6-3.5-31.9-13.1-41.6-27.1
		c-11.4-16.2-14.6-36.8-13.2-56.2c1-16.5,6.1-33.1,16.6-46C1551.7,359.6,1569.4,351,1587.5,348.8L1587.5,348.8z"/>
	<path class="st3" d="M1736.9,349.1c16.6-2.9,34.1-0.8,49.8,5.2c0,11,0,22.1,0,33.1c-11-7.6-24.5-11.6-37.8-11.2
		c-6.7,0.3-14.1,3.1-17.2,9.5c-2.4,6.3-0.8,14.6,5.2,18.4c10.2,6.8,22.4,9.7,33,15.9c8.3,4.7,16.4,10.8,20.6,19.6
		c7.9,16.5,4.6,38.4-9.4,50.7c-13.3,12.4-32.5,15.9-50.1,15.2c-12.5-0.8-25.1-3.3-36.6-8.4c0.1-11.6-0.1-23.2,0.1-34.8
		c9.7,7,20.8,12.1,32.7,14.1c8.2,1.3,17.2,1.4,24.9-2.3c7.3-3.6,8.7-14.1,4.3-20.5c-4.1-4.9-10.1-7.6-15.7-10.3
		c-10.6-4.8-21.8-8.8-31.1-15.9c-6.6-5.1-11.5-12.3-13.5-20.4c-2.9-12-2-25.5,5-35.9C1709,358.9,1722.8,351.6,1736.9,349.1
		L1736.9,349.1z"/>
	<path class="st3" d="M1874.6,348.7c18-2.2,37-1,53.4,7.3c14.3,7.1,25.4,20.1,30.9,35c4.3,11.4,5.8,23.8,5.6,35.9
		c0,18.2-4.9,36.8-16.3,51.3c-10.7,14-27,23-44.3,25.9c-16.9,2.7-34.7,2-50.7-4.3c-16.2-6.4-29.7-19.4-36.6-35.5
		c-7.1-16.4-7.9-34.8-5.7-52.3c2.3-17.5,10.2-34.6,23.8-46.2C1845.8,356.1,1860.1,350.6,1874.6,348.7L1874.6,348.7z"/>
	<path class="st3" d="M1487.8,353.8c9.9-6,22.6-6.5,33.4-2.8c-0.1,12,0,24,0,36c-7.1-4.6-16-6.6-24.3-5.7c-10.2,1.2-18.3,9-22.5,18
		c-4.6,9.5-5.4,20.3-5.1,30.7c0,24,0,48,0,72c-11.8,0-23.7,0-35.5,0c0-50.1,0-100.3,0-150.4c11.8-0.2,23.7-0.1,35.5,0
		c-0.1,8.6,0,17.2,0,25.8C1473.1,368,1478.8,358.9,1487.8,353.8L1487.8,353.8z"/>
	<path class="st3" d="M1229.5,351.5c11.9,0,23.9-0.2,35.8,0.1c-0.1,50.1,0,100.3-0.1,150.4c-11.9,0-23.8,0-35.7,0
		C1229.5,451.8,1229.5,401.7,1229.5,351.5L1229.5,351.5z"/>
	<path class="st1" d="M1598.3,377.3c10.8-0.7,22.3,2.4,30.1,10.2c8.3,8.2,11.5,20.1,12.4,31.4c0.6,12.4,0.1,25.3-5.1,36.8
		c-3.4,7.7-9.7,14.3-17.7,17.4c-9.3,3.6-19.8,3.8-29.4,1.3c-9.8-2.6-18.1-9.6-22.6-18.6c-5.8-11.6-6.7-25-5.5-37.7
		c1.1-11.6,5.1-23.4,13.9-31.4C1581,380.7,1589.7,377.8,1598.3,377.3L1598.3,377.3z"/>
	<path class="st1" d="M1884.3,377.4c10.2-0.7,21,1.6,28.8,8.5c7.2,6,11.2,14.9,13,24c2.1,10.6,2,21.5,0.3,32.2
		c-1.4,7.9-4.1,15.8-9.3,22.1c-5.2,6.3-13,10.1-21,11.3c-8.6,1.3-17.7,0.7-25.8-2.8c-8.7-3.7-15.4-11.2-19-19.9
		c-4.3-10.3-5.1-21.8-4.3-32.8c0.8-10.7,3.8-21.7,10.9-30C1864.4,382.2,1874.3,377.9,1884.3,377.4L1884.3,377.4z"/>
	<path class="st1" d="M2117.2,380.6c11.9,0,23.8-0.3,35.8,0.2v90c-7.9,5.3-18.8,7.4-27.4,2.6c-5.1-2.8-7.1-8.9-7.8-14.4
		c-1.1-9.3-0.4-18.6-0.6-27.9C2117.2,414.2,2117.3,397.4,2117.2,380.6L2117.2,380.6z"/>
	<path class="st4" d="M514,405.5c55.5,0,111,0,166.5,0c0,55.5,0,111,0,166.5H514V405.5L514,405.5z"/>
	<path class="st5" d="M697.5,405.5c55.5,0,111,0,166.5,0c0,55.5,0,111,0,166.5H697.5C697.5,516.5,697.5,461,697.5,405.5L697.5,405.5
		z"/>
</g>
</svg>
