<?xml version="1.0" encoding="utf-8"?>
<!-- Generator: Adobe Illustrator 19.0.0, SVG Export Plug-In . SVG Version: 6.00 Build 0)  -->
<svg version="1.1" id="Layer_1" xmlns="http://www.w3.org/2000/svg" xmlns:xlink="http://www.w3.org/1999/xlink" x="0px" y="0px"
	 viewBox="0 0 463.265 127.551" enable-background="new 0 0 463.265 127.551" xml:space="preserve">
<g>
	<g>
		<path fill-rule="evenodd" clip-rule="evenodd" fill="#FF9900" d="M188.916,102.292c-16.549,12.213-40.543,18.709-61.203,18.709
			c-28.957,0-55.031-10.703-74.765-28.521c-1.549-1.399-0.167-3.311,1.695-2.227c21.289,12.389,47.615,19.85,74.808,19.85
			c18.343,0,38.507-3.807,57.06-11.676C189.309,97.239,191.655,100.27,188.916,102.292z"/>
		<path fill-rule="evenodd" clip-rule="evenodd" fill="#FF9900" d="M195.803,94.43c-2.117-2.711-13.993-1.285-19.328-0.646
			c-1.615,0.193-1.866-1.217-0.409-2.24c9.473-6.654,24.995-4.732,26.799-2.506c1.818,2.248-0.476,17.811-9.355,25.238
			c-1.365,1.143-2.664,0.533-2.059-0.977C193.449,108.311,197.921,97.141,195.803,94.43z"/>
	</g>
	<g>
		<path fill-rule="evenodd" clip-rule="evenodd" d="M176.852,44.539v-6.465c0.004-0.984,0.745-1.64,1.639-1.638l28.978-0.003
			c0.927,0,1.67,0.675,1.672,1.633l-0.002,5.545c-0.007,0.93-0.79,2.144-2.182,4.07l-15.01,21.431
			c5.572-0.131,11.466,0.703,16.528,3.549c1.142,0.641,1.447,1.592,1.537,2.524v6.898c0,0.951-1.04,2.051-2.133,1.478
			c-8.92-4.672-20.756-5.183-30.618,0.057c-1.008,0.537-2.062-0.547-2.062-1.498v-6.558c0-1.049,0.02-2.844,1.078-4.444
			l17.391-24.949l-15.142-0.003C177.6,46.166,176.858,45.507,176.852,44.539z"/>
		<path fill-rule="evenodd" clip-rule="evenodd" d="M71.148,84.921h-8.815c-0.839-0.055-1.51-0.686-1.577-1.49l0.006-45.246
			c0-0.905,0.762-1.629,1.701-1.629l8.21-0.002c0.859,0.044,1.549,0.694,1.604,1.52v5.907h0.165
			c2.14-5.713,6.172-8.379,11.603-8.379c5.514,0,8.97,2.666,11.439,8.379c2.139-5.713,6.994-8.379,12.179-8.379
			c3.703,0,7.735,1.523,10.204,4.951c2.798,3.809,2.223,9.331,2.223,14.187l-0.007,28.553c0,0.904-0.762,1.629-1.7,1.629h-8.806
			c-0.885-0.057-1.583-0.758-1.583-1.625l-0.002-23.987c0-1.904,0.165-6.665-0.247-8.475c-0.658-3.046-2.633-3.903-5.184-3.903
			c-2.14,0-4.362,1.428-5.268,3.713c-0.905,2.285-0.822,6.093-0.822,8.665v23.983c0,0.904-0.762,1.629-1.7,1.629h-8.806
			c-0.885-0.057-1.583-0.758-1.583-1.625l-0.009-23.987c0-5.046,0.823-12.473-5.431-12.473c-6.337,0-6.09,7.236-6.09,12.473
			l-0.004,23.983C72.849,84.196,72.087,84.921,71.148,84.921z"/>
		<path fill-rule="evenodd" clip-rule="evenodd" d="M234.085,35.6c13.085,0,20.161,11.235,20.161,25.517
			c0,13.806-7.816,24.756-20.161,24.756c-12.838,0-19.833-11.236-19.833-25.232C214.252,46.55,221.33,35.6,234.085,35.6z
			 M234.167,44.836c-6.502,0-6.913,8.854-6.913,14.377c0,5.522-0.082,17.329,6.831,17.329c6.831,0,7.159-9.521,7.159-15.329
			c0-3.809-0.164-8.379-1.316-11.997C238.94,46.074,236.964,44.836,234.167,44.836z"/>
		<path fill-rule="evenodd" clip-rule="evenodd" d="M271.215,84.921h-8.783c-0.883-0.057-1.582-0.758-1.582-1.625l-0.014-45.264
			c0.074-0.827,0.805-1.477,1.693-1.477l8.178-0.002c0.77,0.04,1.404,0.565,1.566,1.268v6.921h0.166
			c2.469-6.189,5.924-9.141,12.014-9.141c3.949,0,7.818,1.428,10.287,5.332c2.305,3.618,2.305,9.712,2.305,14.092v28.471
			c-0.1,0.803-0.818,1.426-1.69,1.426h-8.838c-0.816-0.053-1.475-0.652-1.57-1.426V58.928c0-4.951,0.576-12.188-5.514-12.188
			c-2.141,0-4.115,1.428-5.102,3.618c-1.234,2.761-1.4,5.522-1.4,8.569v24.364C272.917,84.196,272.155,84.921,271.215,84.921z"/>
		<ellipse fill-rule="evenodd" clip-rule="evenodd" cx="306.91" cy="81.331" rx="4.339" ry="4.122"/>
		<path d="M395.973,84.932c-0.914-0.027-1.645-0.74-1.645-1.627V38.053c0.062-0.798,0.736-1.434,1.578-1.488l3.236-0.001
			c0.891,0,1.621,0.651,1.693,1.49v6.598c2.301-5.229,6.588-9.325,12.008-9.325l0.34,0.005l0.326-0.005
			c5.748,0,9.955,4.242,11.518,10.403c2.436-6.083,7.025-10.403,13.078-10.403l0.315,0.005l0.353-0.005
			c4.277,0,8.393,2.761,10.533,6.951c2.057,3.999,1.975,9.331,1.975,13.806l-0.002,27.224c0.002,0.867-0.697,1.568-1.582,1.625
			h-3.873c-0.834-0.025-1.518-0.623-1.629-1.404V56.084c0-3.237,0.164-6.665-1.152-9.617c-1.346-3.021-3.908-4.898-6.664-5.038
			c-3.078,0.153-5.902,2.387-7.728,5.418c-2.387,3.904-2.303,7.427-2.303,11.997v24.699c-0.109,0.75-0.762,1.336-1.568,1.389h-3.853
			c-0.914-0.027-1.647-0.74-1.647-1.627l-0.017-29.031c0-2.666-0.164-5.808-1.398-8.188c-1.422-2.739-3.977-4.515-6.652-4.656
			c-2.775,0.155-5.584,2.277-7.248,4.752c-2.139,3.142-2.551,7.045-2.551,11.044l-0.002,26.081c0,0.867-0.699,1.568-1.582,1.625
			H395.973z"/>
		<path d="M369.407,85.885c-12.508,0-18.104-12.759-18.104-25.517c0-13.425,6.584-25.041,19.174-25.041l0.324,0.003l0.342-0.003
			c12.262,0,18.352,12.377,18.352,25.136c0,13.521-6.748,25.422-19.422,25.422l-0.324-0.004L369.407,85.885z M370.329,79.69
			c4.115-0.135,7.361-2.683,9.283-6.944c1.727-3.809,2.057-8.188,2.057-12.377c0-4.57-0.494-9.331-2.633-13.235
			c-1.916-3.415-5.221-5.577-8.721-5.707c-3.897,0.143-7.369,2.776-9.129,6.849c-1.562,3.523-2.057,8.188-2.057,12.092
			c0,4.379,0.576,9.426,2.387,13.234C363.274,77.211,366.667,79.561,370.329,79.69z"/>
		<path d="M330.319,79.501c5.615-0.176,8.562-4.676,9.787-10.51c0.238-0.727,0.797-1.287,1.615-1.287l3.715-0.016
			c0.875,0.046,1.68,0.716,1.613,1.533c-1.715,9.923-7.705,16.665-16.242,16.665l-0.344-0.004l-0.322,0.004
			c-12.426,0-17.775-12.473-17.775-25.136c0-12.568,5.432-25.422,17.857-25.422l0.328,0.003l0.338-0.003
			c8.623,0,14.777,6.645,16.113,16.574c0,0.745-0.691,1.39-1.502,1.484l-3.892-0.045c-0.809-0.116-1.344-0.818-1.465-1.599
			c-0.938-5.543-4.121-9.95-9.426-10.125c-8.449,0.27-10.853,10.668-10.853,18.656C319.864,67.983,321.87,79.221,330.319,79.501z"/>
		<path fill-rule="evenodd" clip-rule="evenodd" d="M153.751,63.313c0,3.436,0.082,6.298-1.649,9.352
			c-1.402,2.481-3.629,4.008-6.104,4.008c-3.381,0-5.36-2.577-5.36-6.394c0-7.508,6.735-8.874,13.113-8.874V63.313z M162.639,84.807
			c-0.584,0.523-1.425,0.559-2.083,0.205c-2.928-2.434-3.452-3.559-5.053-5.875c-4.84,4.93-8.268,6.408-14.535,6.408
			c-7.422,0-13.195-4.58-13.195-13.74c0-7.157,3.876-12.023,9.401-14.409c4.783-2.1,11.464-2.481,16.577-3.054v-1.145
			c0-2.099,0.165-4.581-1.072-6.393c-1.072-1.622-3.134-2.29-4.948-2.29c-3.362,0-6.352,1.723-7.086,5.294
			c-0.152,0.794-0.732,1.58-1.531,1.621l-8.545-0.925c-0.722-0.163-1.523-0.741-1.315-1.843
			c1.964-10.367,11.325-13.499,19.715-13.499c4.288,0,9.896,1.145,13.277,4.39c4.289,4.008,3.876,9.352,3.876,15.172V68.46
			c0,4.131,1.717,5.944,3.328,8.17c0.562,0.802,0.689,1.756-0.029,2.341c-1.801,1.51-5,4.289-6.761,5.855L162.639,84.807z"/>
		<path fill-rule="evenodd" clip-rule="evenodd" d="M38.182,63.313c0,3.436,0.083,6.298-1.649,9.352
			c-1.401,2.481-3.628,4.008-6.103,4.008c-3.381,0-5.36-2.577-5.36-6.394c0-7.508,6.735-8.874,13.112-8.874V63.313z M47.071,84.807
			c-0.584,0.523-1.426,0.559-2.083,0.205c-2.929-2.434-3.453-3.559-5.054-5.875c-4.839,4.93-8.267,6.408-14.534,6.408
			c-7.423,0-13.195-4.58-13.195-13.74c0-7.157,3.876-12.023,9.401-14.409c4.783-2.1,11.464-2.481,16.576-3.054v-1.145
			c0-2.099,0.165-4.581-1.071-6.393c-1.072-1.622-3.135-2.29-4.948-2.29c-3.362,0-6.353,1.723-7.086,5.294
			c-0.153,0.794-0.732,1.58-1.532,1.621L15,50.504c-0.722-0.163-1.524-0.741-1.315-1.843c1.963-10.367,11.324-13.499,19.714-13.499
			c4.289,0,9.896,1.145,13.278,4.39c4.288,4.008,3.876,9.352,3.876,15.172V68.46c0,4.131,1.716,5.944,3.327,8.17
			c0.563,0.802,0.69,1.756-0.028,2.341c-1.801,1.51-5.001,4.289-6.761,5.855L47.071,84.807z"/>
	</g>
</g>
</svg>
