<?xml version="1.0" encoding="utf-8"?>
<!-- Generator: Adobe Illustrator 19.0.0, SVG Export Plug-In . SVG Version: 6.00 Build 0)  -->
<svg version="1.1" id="Layer_1" xmlns="http://www.w3.org/2000/svg" xmlns:xlink="http://www.w3.org/1999/xlink" x="0px" y="0px"
	 viewBox="0 0 255.171 80.251" enable-background="new 0 0 255.171 80.251" xml:space="preserve">
<g id="XMLID_1_">
	<path id="XMLID_10_" fill="#4285F4" d="M31.87,28.589v8.587h20.525c-0.628,4.817-2.234,8.343-4.678,10.821
		c-3.002,3.002-7.68,6.283-15.848,6.283c-12.636,0-22.515-10.193-22.515-22.829S19.234,8.622,31.87,8.622
		c6.807,0,11.799,2.688,15.464,6.144l6.039-6.039C48.277,3.77,41.435,0,31.87,0C14.556,0,0,14.102,0,31.416
		s14.556,31.416,31.87,31.416c9.355,0,16.406-3.072,21.922-8.797c5.655-5.655,7.435-13.649,7.435-20.072
		c0-1.99-0.14-3.84-0.454-5.376H31.87z"/>
	<path id="XMLID_24_" fill="#EA4335" d="M86.884,21.608c-11.205,0-20.351,8.517-20.351,20.281c0,11.659,9.146,20.281,20.351,20.281
		s20.351-8.587,20.351-20.281C107.235,30.125,98.089,21.608,86.884,21.608z M86.884,54.176c-6.144,0-11.45-5.062-11.45-12.287
		c0-7.296,5.306-12.287,11.45-12.287c6.144,0,11.45,4.992,11.45,12.287C98.333,49.114,93.027,54.176,86.884,54.176z"/>
	<path id="XMLID_21_" fill="#4285F4" d="M186.648,26.145h-0.314c-1.99-2.374-5.829-4.538-10.682-4.538
		c-10.123,0-18.955,8.832-18.955,20.281c0,11.38,8.831,20.281,18.955,20.281c4.852,0,8.692-2.164,10.682-4.608h0.314v2.827
		c0,7.749-4.154,11.903-10.821,11.903c-5.446,0-8.831-3.91-10.228-7.226l-7.749,3.211c2.234,5.376,8.133,11.973,17.977,11.973
		c10.437,0,19.269-6.144,19.269-21.119V22.655h-8.448V26.145z M176.421,54.176c-6.144,0-10.821-5.236-10.821-12.287
		c0-7.156,4.678-12.287,10.821-12.287c6.074,0,10.821,5.236,10.821,12.357C187.277,49.045,182.494,54.176,176.421,54.176z"/>
	<path id="XMLID_18_" fill="#FBBC05" d="M132.263,21.608c-11.205,0-20.351,8.517-20.351,20.281c0,11.659,9.146,20.281,20.351,20.281
		s20.351-8.587,20.351-20.281C152.614,30.125,143.468,21.608,132.263,21.608z M132.263,54.176c-6.144,0-11.45-5.062-11.45-12.287
		c0-7.296,5.306-12.287,11.45-12.287c6.144,0,11.45,4.992,11.45,12.287C143.713,49.114,138.407,54.176,132.263,54.176z"/>
	<path id="XMLID_3_" fill="#34A853" d="M202.077,0.838h8.762V62.17h-8.762V0.838z"/>
	<path id="XMLID_14_" fill="#EA4335" d="M237.892,54.176c-4.538,0-7.749-2.06-9.844-6.144l27.123-11.205l-0.908-2.304
		c-1.676-4.538-6.842-12.916-17.349-12.916c-10.437,0-19.129,8.203-19.129,20.281c0,11.38,8.587,20.281,20.107,20.281
		c9.285,0,14.661-5.69,16.895-8.971l-6.912-4.608C245.572,51.942,242.43,54.176,237.892,54.176L237.892,54.176z M237.264,29.217
		c3.595,0,6.667,1.85,7.68,4.468l-18.326,7.575C226.617,32.743,232.656,29.217,237.264,29.217z"/>
</g>
</svg>
