<?xml version="1.0" encoding="utf-8"?>
<!-- Generator: Adobe Illustrator 19.0.0, SVG Export Plug-In . SVG Version: 6.00 Build 0)  -->
<svg version="1.1" id="Layer_1" xmlns="http://www.w3.org/2000/svg" xmlns:xlink="http://www.w3.org/1999/xlink" x="0px" y="0px"
	 viewBox="0 0 426.4 82.557" enable-background="new 0 0 426.4 82.557" xml:space="preserve">
<g id="XMLID_32_">
	<path id="XMLID_48_" fill="#004F9D" d="M33.36,12.94c-5.018,0-6.474,2.232-6.474,7.14v8.144h13.391l-1.338,13.169H26.886v39.944
		H10.82V41.393H0V28.224h10.82v-7.922C10.82,7.028,16.177,0,31.128,0c3.237,0,7.028,0.222,9.371,0.555V12.94"/>
	<path id="XMLID_66_" fill="#004F9D" d="M41.393,53.106c0-14.84,7.028-25.998,21.757-25.998c8.033,0,12.941,4.131,15.283,9.26
		v-8.144h15.401V81.33H78.433v-8.027c-2.232,5.129-7.25,9.143-15.283,9.143c-14.729,0-21.757-11.152-21.757-25.992 M57.46,56.676
		c0,7.923,2.904,13.163,10.376,13.163c6.585,0,9.932-4.796,9.932-12.379v-5.358c0-7.589-3.348-12.386-9.932-12.386
		c-7.472,0-10.376,5.247-10.376,13.169V56.676z"/>
	<path id="XMLID_45_" fill="#004F9D" d="M127.298,27.108c6.245,0,12.164,1.338,15.394,3.57l-3.57,11.381
		c-2.454-1.227-6.467-2.454-10.709-2.454c-8.705,0-12.497,5.018-12.497,13.613v3.119c0,8.595,3.791,13.613,12.497,13.613
		c4.242,0,8.255-1.227,10.709-2.454l3.57,11.381c-3.23,2.232-9.149,3.57-15.394,3.57c-18.853,0-27.448-10.154-27.448-26.442V53.55
		C99.851,37.262,108.445,27.108,127.298,27.108"/>
	<path id="XMLID_62_" fill="#004F9D" d="M144.813,56.787v-4.686c0-15.061,8.588-24.994,26.109-24.994
		c16.51,0,23.76,10.043,23.76,24.772v8.477H160.88c0.333,7.257,3.57,10.487,12.497,10.487c6.023,0,12.386-1.227,17.071-3.23
		l2.897,11.041c-4.235,2.232-12.941,3.903-20.641,3.903C152.403,82.557,144.813,72.41,144.813,56.787 M160.88,49.87h19.414v-1.337
		c0-5.802-2.343-10.376-9.371-10.376C163.666,38.156,160.88,42.731,160.88,49.87"/>
	<path id="XMLID_59_" fill="#004F9D" d="M254.263,56.448c0,14.84-7.139,25.999-21.868,25.999c-8.033,0-13.613-4.02-15.845-9.149
		v8.033h-15.172V1.553l16.066-1.449v35.48c2.343-4.685,7.472-8.477,14.951-8.477c14.729,0,21.868,11.152,21.868,25.992
		 M238.197,52.767c0-7.479-2.904-13.052-10.598-13.052c-6.585,0-10.154,4.686-10.154,12.268v5.58c0,7.589,3.57,12.275,10.154,12.275
		c7.694,0,10.598-5.579,10.598-13.058V52.767z"/>
	<path id="XMLID_56_" fill="#004F9D" d="M259.614,56.115v-2.676c0-15.283,8.699-26.331,26.442-26.331
		c17.737,0,26.442,11.048,26.442,26.331v2.676c0,15.29-8.705,26.331-26.442,26.331C268.313,82.446,259.614,71.405,259.614,56.115
		 M296.433,52.323c0-7.028-2.904-12.607-10.376-12.607c-7.479,0-10.376,5.579-10.376,12.607v4.907
		c0,7.028,2.897,12.608,10.376,12.608c7.472,0,10.376-5.579,10.376-12.608V52.323z"/>
	<path id="XMLID_53_" fill="#004F9D" d="M317.85,56.115v-2.676c0-15.283,8.699-26.331,26.442-26.331
		c17.737,0,26.442,11.048,26.442,26.331v2.676c0,15.29-8.705,26.331-26.442,26.331C326.549,82.446,317.85,71.405,317.85,56.115
		 M354.669,52.323c0-7.028-2.904-12.607-10.376-12.607c-7.478,0-10.376,5.579-10.376,12.607v4.907
		c0,7.028,2.897,12.608,10.376,12.608c7.472,0,10.376-5.579,10.376-12.608V52.323z"/>
	<polyline id="XMLID_33_" fill="#004F9D" points="392.819,53.55 408.663,28.224 425.734,28.224 409.107,54.444 426.4,81.33 
		409.335,81.33 392.819,55.338 392.819,81.33 376.752,81.33 376.752,1.559 392.819,0.104 	"/>
</g>
</svg>
